<svg xmlns="http://www.w3.org/2000/svg" width="960" height="360" viewBox="0 0 960 360">
<rect width="100%" height="100%" fill="#ffffff"/>
<text x="48" y="30" font-family="Arial" font-size="18" font-weight="700">Baseline public score by task family</text>
<line x1="48" y1="312" x2="912" y2="312" stroke="#222"/>
<line x1="48" y1="312" x2="48" y2="48" stroke="#222"/>
<rect x="68" y="272.4" width="26" height="39.6" fill="#3b82f6"/>
<text x="68" y="268.4" font-family="Arial" font-size="10">0.15</text>
<rect x="98" y="272.4" width="26" height="39.6" fill="#10b981"/>
<text x="98" y="268.4" font-family="Arial" font-size="10">0.15</text>
<text x="62" y="344" font-family="Arial" font-size="10" transform="rotate(25 62,344)">payroll net pay</text>
<rect x="150" y="272.4" width="26" height="39.6" fill="#3b82f6"/>
<text x="150" y="268.4" font-family="Arial" font-size="10">0.15</text>
<rect x="180" y="272.4" width="26" height="39.6" fill="#10b981"/>
<text x="180" y="268.4" font-family="Arial" font-size="10">0.15</text>
<text x="144" y="344" font-family="Arial" font-size="10" transform="rotate(25 144,344)">customer format</text>
<rect x="232" y="272.4" width="26" height="39.6" fill="#3b82f6"/>
<text x="232" y="268.4" font-family="Arial" font-size="10">0.15</text>
<rect x="262" y="251.3" width="26" height="60.7" fill="#10b981"/>
<text x="262" y="247.3" font-family="Arial" font-size="10">0.23</text>
<text x="226" y="344" font-family="Arial" font-size="10" transform="rotate(25 226,344)">claims eligibility</text>
<rect x="314" y="272.4" width="26" height="39.6" fill="#3b82f6"/>
<text x="314" y="268.4" font-family="Arial" font-size="10">0.15</text>
<rect x="344" y="251.3" width="26" height="60.7" fill="#10b981"/>
<text x="344" y="247.3" font-family="Arial" font-size="10">0.23</text>
<text x="308" y="344" font-family="Arial" font-size="10" transform="rotate(25 308,344)">account status</text>
<rect x="396" y="272.4" width="26" height="39.6" fill="#3b82f6"/>
<text x="396" y="268.4" font-family="Arial" font-size="10">0.15</text>
<rect x="426" y="272.4" width="26" height="39.6" fill="#10b981"/>
<text x="426" y="268.4" font-family="Arial" font-size="10">0.15</text>
<text x="390" y="344" font-family="Arial" font-size="10" transform="rotate(25 390,344)">invoice occurs</text>
<rect x="478" y="272.4" width="26" height="39.6" fill="#3b82f6"/>
<text x="478" y="268.4" font-family="Arial" font-size="10">0.15</text>
<rect x="508" y="272.4" width="26" height="39.6" fill="#10b981"/>
<text x="508" y="268.4" font-family="Arial" font-size="10">0.15</text>
<text x="472" y="344" font-family="Arial" font-size="10" transform="rotate(25 472,344)">date normalization</text>
<rect x="750" y="42" width="12" height="12" fill="#3b82f6"/>
<text x="768" y="52" font-family="Arial" font-size="12">identity</text>
<rect x="750" y="62" width="12" height="12" fill="#10b981"/>
<text x="768" y="72" font-family="Arial" font-size="12">blank_width</text>
</svg>